<?xml version="1.0" encoding="UTF-8"?>
<svg xmlns="http://www.w3.org/2000/svg" xmlns:xlink="http://www.w3.org/1999/xlink" width="24px" height="24px" viewBox="0 0 24 24" version="1.1">
<g id="surface1">
<path style=" stroke:none;fill-rule:nonzero;fill:rgb(0%,0%,0%);fill-opacity:1;" d="M 8.15625 0.0117188 C 8.109375 0.015625 7.964844 0.0273438 7.828125 0.0390625 C 7.011719 0.105469 6.128906 0.320312 5.34375 0.640625 C 3.753906 1.28125 2.34375 2.449219 1.402344 3.890625 C -0.25 6.421875 -0.453125 9.65625 0.875 12.367188 C 2.136719 14.949219 4.605469 16.730469 7.460938 17.109375 C 8.164062 17.203125 9.019531 17.203125 9.730469 17.109375 C 10.792969 16.96875 11.898438 16.597656 12.816406 16.078125 C 13.242188 15.835938 13.773438 15.46875 14.101562 15.191406 C 14.167969 15.132812 14.238281 15.074219 14.253906 15.058594 C 14.289062 15.03125 14.34375 15.085938 15.039062 15.777344 L 15.785156 16.527344 L 15.65625 16.660156 C 15.574219 16.742188 15.503906 16.839844 15.472656 16.90625 C 15.425781 17.003906 15.421875 17.035156 15.421875 17.210938 C 15.421875 17.566406 15.105469 17.214844 18.660156 20.765625 C 21.257812 23.359375 21.792969 23.890625 21.871094 23.925781 C 22.015625 23.988281 22.171875 24.011719 22.3125 23.984375 C 22.554688 23.941406 22.589844 23.914062 23.25 23.25 C 23.917969 22.585938 23.945312 22.550781 23.988281 22.308594 C 24 22.21875 24 22.15625 23.988281 22.074219 C 23.941406 21.820312 24.117188 22.007812 20.742188 18.632812 C 17.203125 15.097656 17.558594 15.421875 17.210938 15.421875 C 17.035156 15.421875 17.003906 15.425781 16.90625 15.472656 C 16.839844 15.503906 16.742188 15.574219 16.660156 15.65625 L 16.527344 15.785156 L 15.777344 15.039062 L 15.03125 14.292969 L 15.085938 14.226562 C 15.703125 13.484375 16.109375 12.84375 16.433594 12.109375 C 16.988281 10.847656 17.226562 9.597656 17.171875 8.203125 C 17.105469 6.5 16.5 4.816406 15.46875 3.441406 C 14.023438 1.515625 11.867188 0.296875 9.464844 0.046875 C 9.207031 0.0195312 8.332031 -0.00390625 8.15625 0.0117188 Z M 9.425781 1.769531 C 9.949219 1.839844 10.328125 1.925781 10.816406 2.09375 C 12.839844 2.773438 14.449219 4.402344 15.121094 6.441406 C 15.507812 7.609375 15.566406 8.894531 15.296875 10.101562 C 14.921875 11.773438 13.945312 13.230469 12.523438 14.230469 C 10.78125 15.460938 8.488281 15.796875 6.441406 15.121094 C 5.367188 14.765625 4.367188 14.132812 3.601562 13.316406 C 2.578125 12.230469 1.96875 10.933594 1.769531 9.425781 C 1.734375 9.136719 1.714844 8.355469 1.742188 8.054688 C 1.867188 6.640625 2.367188 5.378906 3.234375 4.285156 C 3.449219 4.019531 4.019531 3.449219 4.285156 3.234375 C 5.359375 2.382812 6.609375 1.875 8.003906 1.742188 C 8.25 1.71875 9.179688 1.734375 9.425781 1.769531 Z M 9.425781 1.769531 "/>
<path style=" stroke:none;fill-rule:nonzero;fill:rgb(0%,0%,0%);fill-opacity:1;" d="M 7.960938 2.859375 C 6.996094 2.964844 6.042969 3.332031 5.238281 3.902344 C 4.6875 4.292969 4.175781 4.828125 3.785156 5.414062 C 3.152344 6.363281 2.808594 7.519531 2.835938 8.625 C 2.839844 8.949219 2.859375 9.007812 2.976562 9.128906 C 3.175781 9.324219 3.515625 9.308594 3.699219 9.09375 C 3.800781 8.972656 3.824219 8.871094 3.824219 8.546875 C 3.824219 7.308594 4.332031 6.105469 5.230469 5.210938 C 5.953125 4.492188 6.789062 4.066406 7.835938 3.878906 C 8.15625 3.820312 8.964844 3.816406 9.296875 3.867188 C 9.839844 3.957031 10.324219 4.117188 10.800781 4.359375 C 11.164062 4.550781 11.339844 4.671875 11.871094 5.113281 C 11.988281 5.207031 12.09375 5.242188 12.242188 5.226562 C 12.5 5.203125 12.679688 5 12.679688 4.734375 C 12.679688 4.535156 12.609375 4.429688 12.273438 4.152344 C 11.371094 3.414062 10.363281 2.992188 9.195312 2.859375 C 8.898438 2.824219 8.269531 2.824219 7.960938 2.859375 Z M 7.960938 2.859375 "/>
</g>
</svg>
